<svg width="50" height="50" viewBox="0 0 50 50" fill="none" xmlns="http://www.w3.org/2000/svg">
<path d="M33.333 6.25L43.7497 16.6667" stroke="#359E52" stroke-linecap="round" stroke-linejoin="round"/>
<path d="M4.167 25H45.8337C45.8337 29.1204 44.6118 33.1483 42.3226 36.5743C40.0334 40.0004 36.7797 42.6706 32.9729 44.2475C29.1661 45.8243 24.9772 46.2369 20.936 45.433C16.8947 44.6291 13.1825 42.6449 10.2689 39.7314C7.35535 36.8178 5.37117 33.1056 4.56731 29.0643C3.76345 25.0231 4.17602 20.8342 5.75284 17.0274C7.32967 13.2206 9.99993 9.96687 13.426 7.67768C16.852 5.38848 20.8799 4.16663 25.0003 4.16663C19.6508 9.78361 16.667 17.2432 16.667 25C16.667 32.7568 19.6508 40.2163 25.0003 45.8333C30.3498 40.2163 33.3337 32.7568 33.3337 25" stroke="#359E52" stroke-linecap="round" stroke-linejoin="round"/>
<path d="M43.7497 6.25L33.333 16.6667" stroke="#359E52" stroke-linecap="round" stroke-linejoin="round"/>
</svg>
