<svg width="50" height="50" viewBox="0 0 50 50" fill="none" xmlns="http://www.w3.org/2000/svg">
<path d="M25 12.5V25L33.3333 29.1667" stroke="#359E52" stroke-linecap="round" stroke-linejoin="round"/>
<path d="M41.667 25V35.4167" stroke="#359E52" stroke-linecap="round" stroke-linejoin="round"/>
<path d="M41.667 43.75H41.6878" stroke="#359E52" stroke-linecap="round" stroke-linejoin="round"/>
<path d="M44.2708 17.0833C42.6993 13.2529 40.0221 9.9775 36.5809 7.67527C33.1397 5.37303 29.0906 4.14835 24.9503 4.15752C20.81 4.16669 16.7663 5.4093 13.3354 7.72676C9.9044 10.0442 7.24176 13.3314 5.68726 17.1688C4.13276 21.0062 3.7569 25.2198 4.60766 29.2717C5.45843 33.3237 7.49722 37.0302 10.4638 39.9183C13.4305 42.8065 17.1903 44.7452 21.2636 45.487C25.3369 46.2288 29.5389 45.7402 33.3333 44.0833" stroke="#359E52" stroke-linecap="round" stroke-linejoin="round"/>
</svg>
