<svg width="50" height="50" viewBox="0 0 50 50" fill="none" xmlns="http://www.w3.org/2000/svg">
<path d="M39.2503 25.5208L42.8337 21.9583H42.792C44.71 19.9709 45.7609 17.3036 45.714 14.542C45.6672 11.7804 44.5263 9.1503 42.542 7.22911C40.5981 5.35451 38.0029 4.30701 35.3024 4.30701C32.6019 4.30701 30.0067 5.35451 28.0628 7.22911L24.4795 10.7916" stroke="#359E52" stroke-linecap="round" stroke-linejoin="round"/>
<path d="M10.7712 24.4791L7.20869 28.0416C5.29071 30.029 4.23979 32.6964 4.28666 35.4579C4.33353 38.2195 5.47437 40.8496 7.45869 42.7708C9.40255 44.6454 11.9978 45.6929 14.6983 45.6929C17.3988 45.6929 19.994 44.6454 21.9379 42.7708L25.5004 39.2083" stroke="#359E52" stroke-linecap="round" stroke-linejoin="round"/>
<path d="M16.667 4.16663V10.4166" stroke="#359E52" stroke-linecap="round" stroke-linejoin="round"/>
<path d="M4.16699 16.6666H10.417" stroke="#359E52" stroke-linecap="round" stroke-linejoin="round"/>
<path d="M33.333 39.5834V45.8334" stroke="#359E52" stroke-linecap="round" stroke-linejoin="round"/>
<path d="M39.583 33.3334H45.833" stroke="#359E52" stroke-linecap="round" stroke-linejoin="round"/>
</svg>
